<svg xmlns="http://www.w3.org/2000/svg" xmlns:xlink="http://www.w3.org/1999/xlink" viewBox="0 0 311.83 109.35"><defs><style>.cls-1,.cls-2,.cls-5{fill:#fff;}.cls-2{opacity:0.5;}.cls-3{fill:url(#linear-gradient);}.cls-4{fill:#68ba66;}.cls-5{opacity:0.25;}.cls-6{fill:url(#linear-gradient-2);}</style><linearGradient id="linear-gradient" x1="48.55" x2="48.55" y2="77.16" gradientUnits="userSpaceOnUse"><stop offset="0.04" stop-color="#66bb68"></stop><stop offset="1" stop-color="#53926c"></stop></linearGradient><linearGradient id="linear-gradient-2" x1="211.65" y1="91.02" x2="308.62" y2="91.02" xlink:href="#linear-gradient"></linearGradient></defs><g id="Layer_2" data-name="Layer 2"><g id="Layer_1-2" data-name="Layer 1"><path class="cls-1" d="M94.06,61.13V15.8h15.28V49.28h20.47V61.13Z"></path><path class="cls-1" d="M151.8,15.8,132,61.13h15.54l3.07-7.9h17.17l3.07,7.9h15.8L166.82,15.8Zm3.07,26.42,4.31-11.08,4.3,11.08Z"></path><rect class="cls-1" x="190.8" y="15.8" width="15.28" height="45.33"></rect><polygon class="cls-1" points="253.84 15.8 239.49 39.93 224.7 15.8 212.14 15.8 212.14 61.13 226.06 61.13 226.06 41.17 235.91 57.05 242.64 57.05 252.5 40.46 252.61 61.13 266.54 61.13 266.41 15.8 253.84 15.8"></polygon><path class="cls-1" d="M310.47,40.93a11.39,11.39,0,0,0-3.6-3.89A21,21,0,0,0,302,34.65a39.79,39.79,0,0,0-5.34-1.43c-1.79-.34-3.43-.67-4.92-1a14.65,14.65,0,0,1-3.59-1.13,2.05,2.05,0,0,1-1.36-1.85,2.14,2.14,0,0,1,.55-1.42,3.8,3.8,0,0,1,1.84-1,12.6,12.6,0,0,1,3.5-.39,23.62,23.62,0,0,1,6.12.85,35,35,0,0,1,6.51,2.52l4.59-11.07a28.65,28.65,0,0,0-8-3,42.48,42.48,0,0,0-9.07-1,29,29,0,0,0-11.69,2.07A16.17,16.17,0,0,0,274,22.38a13.34,13.34,0,0,0-2.36,7.67A12.17,12.17,0,0,0,273,36.1,11.2,11.2,0,0,0,276.63,40a20.81,20.81,0,0,0,4.92,2.4,47.94,47.94,0,0,0,5.35,1.46c1.77.36,3.4.71,4.89,1a14.56,14.56,0,0,1,3.59,1.2,2.15,2.15,0,0,1,1.36,1.94,1.76,1.76,0,0,1-.58,1.33,3.94,3.94,0,0,1-1.85.84,15.78,15.78,0,0,1-3.46.29,28,28,0,0,1-7.74-1.13,31.74,31.74,0,0,1-7.22-3L271,57.51a31.16,31.16,0,0,0,8.74,3.36,46,46,0,0,0,11,1.3,28.44,28.44,0,0,0,11.72-2.11,16.28,16.28,0,0,0,7-5.56,13.2,13.2,0,0,0,2.37-7.61A12,12,0,0,0,310.47,40.93Z"></path><path class="cls-1" d="M39.54,31.31,30.76,41.4,20.25,31.31V0H39.54Z"></path><polygon class="cls-2" points="20.25 0 20.25 31.31 30.76 41.4 30.76 0 20.25 0"></polygon><path class="cls-1" d="M53.47,56.31,66.66,71.67a16.15,16.15,0,0,0,12.06,5.4H96.48L66,42Z"></path><path class="cls-3" d="M78.75,0A16.16,16.16,0,0,0,66.36,5.79L30.63,48.48l.15-.15L7.17,22.65,4.1,26.08a16.16,16.16,0,0,0,.31,21.86l2.3,2.43,13,14.44L30.63,77.16,97.11,0Z"></path><path class="cls-4" d="M30.71,61.66,84.3,0H78.76a16.16,16.16,0,0,0-12.4,5.79L30.77,48.31,7.17,22.64,4.1,26.08a16.13,16.13,0,0,0-2.8,4.41Z"></path><path class="cls-5" d="M59.88,49l-6.41,7.32L66.66,71.67a16.15,16.15,0,0,0,12.06,5.4h5.76Z"></path><path class="cls-6" d="M294.26,72.69H211.65V95A14.37,14.37,0,0,0,226,109.35h82.6V87.06A14.36,14.36,0,0,0,294.26,72.69Z"></path><path class="cls-1" d="M223.35,92.42a4.16,4.16,0,0,0-3,1.1,3.81,3.81,0,0,0-1.2,2.94,3.93,3.93,0,0,0,1.2,3,4.4,4.4,0,0,0,5.93,0,3.93,3.93,0,0,0,1.2-3,3.81,3.81,0,0,0-1.2-2.94A4.2,4.2,0,0,0,223.35,92.42Z"></path><path class="cls-1" d="M237.79,88.6a3,3,0,0,1,1.46-.38,2.88,2.88,0,0,1,1.69.54,4,4,0,0,1,1.31,1.73l5.52-2.71A7.09,7.09,0,0,0,244.68,84a10.24,10.24,0,0,0-5.39-1.35A11.84,11.84,0,0,0,234,83.8,8.92,8.92,0,0,0,230.4,87a8.34,8.34,0,0,0-1.31,4.64,8.45,8.45,0,0,0,1.31,4.65A8.87,8.87,0,0,0,234,99.42a11.7,11.7,0,0,0,5.27,1.14,10.25,10.25,0,0,0,5.39-1.36,7.07,7.07,0,0,0,3.09-3.75l-5.52-2.72a4.07,4.07,0,0,1-1.31,1.74,2.87,2.87,0,0,1-1.69.53,3,3,0,0,1-1.46-.37,2.77,2.77,0,0,1-1.08-1.14,4.13,4.13,0,0,1-.39-1.89,4,4,0,0,1,.39-1.88A2.66,2.66,0,0,1,237.79,88.6Z"></path><path class="cls-1" d="M263.86,83.8a12.51,12.51,0,0,0-10.39,0A8.79,8.79,0,0,0,249.92,87a8.91,8.91,0,0,0,0,9.27,8.91,8.91,0,0,0,3.55,3.18,12.31,12.31,0,0,0,10.39,0,8.78,8.78,0,0,0,3.55-3.18,9,9,0,0,0,0-9.27A8.66,8.66,0,0,0,263.86,83.8Zm-2.77,9.67a2.69,2.69,0,0,1-1,1.16,2.91,2.91,0,0,1-2.84,0,2.69,2.69,0,0,1-1-1.16,4.24,4.24,0,0,1-.38-1.87,4.14,4.14,0,0,1,.38-1.88,2.63,2.63,0,0,1,1-1.12,2.84,2.84,0,0,1,2.84,0,2.63,2.63,0,0,1,1,1.12,4.14,4.14,0,0,1,.38,1.88A4.24,4.24,0,0,1,261.09,93.47Z"></path><path class="cls-1" d="M300,86a5.74,5.74,0,0,0-2.46-2.51,7.66,7.66,0,0,0-3.52-.8,7.25,7.25,0,0,0-5.76,2.6,5.08,5.08,0,0,0-1.39-1.42,7,7,0,0,0-4-1.18,7.09,7.09,0,0,0-3.66,1,5.76,5.76,0,0,0-1.23,1V83h-6.78v17.26h7.13V91.82a4.66,4.66,0,0,1,.3-1.85,2,2,0,0,1,1.94-1.31,1.68,1.68,0,0,1,1.42.68,4,4,0,0,1,.5,2.29v8.61h7.13V91.82a4.66,4.66,0,0,1,.3-1.85,2.14,2.14,0,0,1,.81-1,2.07,2.07,0,0,1,1.13-.32,1.7,1.7,0,0,1,1.39.68,3.72,3.72,0,0,1,.54,2.29v8.61h7.13V90.4A9.46,9.46,0,0,0,300,86Z"></path></g></g></svg>