<svg xmlns="http://www.w3.org/2000/svg" width="391" height="100" viewBox="0 0 391 100" fill="none"><g clip-path="url(#clip0_1109_36)"><path d="M115.82 99.4041V84.0991H109.887V80.4922C110.719 80.516 111.523 80.4539 112.298 80.3076C113.073 80.1614 113.769 79.9036 114.387 79.5325C115.007 79.1614 115.528 78.6733 115.955 78.0663C116.381 77.4594 116.663 76.708 116.798 75.8086H120.607V99.406H115.82V99.4041Z" fill="#42DEE1"></path><path d="M120.665 99.4606H115.763V84.1556H109.831V80.4299H109.889C110.001 80.4353 110.11 80.4372 110.222 80.4372C110.931 80.4372 111.624 80.3732 112.287 80.2489C113.049 80.1045 113.746 79.8467 114.356 79.4811C114.963 79.1173 115.486 78.6292 115.908 78.0295C116.326 77.4317 116.606 76.6804 116.739 75.7974L116.747 75.748H120.665V99.4624V99.4606ZM115.879 99.3436H120.548V75.8632H116.847C116.71 76.7444 116.425 77.4957 116.005 78.0972C115.572 78.7096 115.04 79.2087 114.418 79.5798C113.795 79.9545 113.086 80.2178 112.309 80.3622C111.554 80.5048 110.761 80.567 109.946 80.5505V84.0386H115.879V99.3436Z" fill="#42DEE1"></path><path d="M134.593 81.1154C134.953 79.9582 135.492 78.9472 136.21 78.0807C136.93 77.216 137.833 76.5414 138.922 76.0588C140.012 75.5761 141.266 75.333 142.68 75.333C143.759 75.333 144.786 75.5012 145.765 75.8394C146.743 76.1758 147.602 76.6602 148.343 77.2873C149.085 77.918 149.675 78.6931 150.112 79.6126C150.551 80.534 150.77 81.5687 150.77 82.715C150.77 83.8612 150.578 84.9288 150.198 85.7825C149.816 86.6363 149.309 87.3968 148.681 88.0586C148.05 88.7203 147.337 89.3218 146.54 89.8611C145.742 90.4022 144.939 90.936 144.13 91.4625C143.32 91.9908 142.534 92.5594 141.77 93.1663C141.006 93.7733 140.332 94.4807 139.747 95.2906H150.901V99.4039H133.578C133.578 98.0346 133.776 96.8427 134.168 95.8299C134.561 94.8189 135.097 93.914 135.77 93.117C136.444 92.3199 137.235 91.5832 138.146 90.9086C139.056 90.2358 140.017 89.5503 141.028 88.8538C141.543 88.4936 142.095 88.128 142.678 87.7569C143.261 87.3858 143.797 86.9763 144.28 86.5266C144.762 86.0769 145.168 85.5723 145.493 85.0093C145.819 84.448 145.981 83.8082 145.981 83.0879C145.981 81.9417 145.649 81.0477 144.987 80.4079C144.325 79.768 143.477 79.4481 142.443 79.4481C141.746 79.4481 141.156 79.6108 140.673 79.938C140.191 80.2634 139.803 80.6912 139.511 81.2177C139.219 81.7461 139.01 82.3311 138.888 82.9709C138.763 83.6126 138.703 84.2469 138.703 84.8758H134.121C134.075 83.5266 134.232 82.2744 134.593 81.1172V81.1154Z" fill="#42DEE1"></path><path d="M150.964 99.4604H133.523V99.4019C133.523 98.0327 133.723 96.8225 134.117 95.8079C134.51 94.7969 135.053 93.8774 135.728 93.0766C136.404 92.2778 137.206 91.5319 138.113 90.8591C139.034 90.1791 140.003 89.4862 140.997 88.8025C141.509 88.446 142.064 88.0749 142.649 87.7056C143.232 87.3364 143.768 86.925 144.241 86.4826C144.718 86.0384 145.122 85.5338 145.444 84.9799C145.762 84.4315 145.925 83.7935 145.925 83.0878C145.925 81.9635 145.596 81.075 144.947 80.4498C144.298 79.8228 143.455 79.5047 142.443 79.5047C141.763 79.5047 141.178 79.6656 140.706 79.9836C140.235 80.3017 139.849 80.7259 139.562 81.2432C139.275 81.7642 139.067 82.3492 138.945 82.9799C138.822 83.6143 138.76 84.2523 138.76 84.8739V84.9324H134.063V84.8775C134.015 83.5302 134.174 82.2578 134.534 81.0988C134.894 79.9379 135.443 78.9105 136.163 78.044C136.885 77.1775 137.804 76.4919 138.897 76.0057C139.99 75.5212 141.264 75.2744 142.679 75.2744C143.759 75.2744 144.802 75.4444 145.782 75.7826C146.76 76.1208 147.634 76.6108 148.377 77.2415C149.123 77.874 149.723 78.6637 150.163 79.5869C150.604 80.512 150.825 81.565 150.825 82.7149C150.825 83.8647 150.631 84.947 150.247 85.8062C149.862 86.6636 149.348 87.4351 148.719 88.0987C148.089 88.7605 147.367 89.371 146.57 89.9103C145.749 90.4661 144.938 91.0054 144.159 91.5118C143.353 92.0383 142.562 92.6105 141.805 93.2119C141.076 93.7896 140.423 94.4697 139.86 95.232H150.958V99.4604H150.964ZM133.64 99.3434H150.849V95.3472H139.637L139.703 95.2558C140.286 94.4477 140.97 93.7293 141.737 93.1205C142.496 92.5154 143.293 91.9414 144.101 91.4149C144.879 90.9067 145.689 90.3674 146.51 89.8135C147.299 89.2796 148.016 88.6764 148.641 88.0201C149.26 87.3674 149.767 86.6069 150.147 85.7605C150.523 84.9177 150.715 83.894 150.715 82.7167C150.715 81.5394 150.496 80.5504 150.063 79.64C149.631 78.7314 149.041 77.9544 148.31 77.3329C147.575 76.7095 146.716 76.2269 145.751 75.8941C144.784 75.5596 143.753 75.3896 142.686 75.3896C141.286 75.3896 140.03 75.6327 138.952 76.1099C137.875 76.587 136.971 77.2616 136.26 78.1153C135.55 78.9709 135.009 79.9837 134.653 81.1299C134.302 82.2615 134.143 83.501 134.183 84.8135H138.65C138.654 84.2011 138.716 83.5759 138.837 82.9562C138.961 82.3127 139.173 81.7185 139.467 81.1866C139.763 80.6527 140.16 80.2158 140.648 79.8849C141.14 79.5522 141.745 79.3859 142.45 79.3859C143.494 79.3859 144.364 79.7149 145.036 80.3621C145.707 81.0129 146.047 81.9288 146.047 83.086C146.047 83.8136 145.881 84.4699 145.552 85.0366C145.225 85.5996 144.813 86.1152 144.327 86.5667C143.848 87.0146 143.306 87.4314 142.717 87.8043C142.134 88.1736 141.58 88.5429 141.068 88.8994C140.076 89.5831 139.107 90.2741 138.188 90.9542C137.287 91.6215 136.492 92.3618 135.821 93.1534C135.154 93.945 134.618 94.8518 134.229 95.8517C133.847 96.8389 133.65 98.0144 133.642 99.3453L133.64 99.3434Z" fill="#42DEE1"></path><path d="M160.443 82.4625C160.984 80.9232 161.758 79.5814 162.769 78.4333C163.78 77.2871 165.021 76.3876 166.494 75.7368C167.965 75.086 169.623 74.7588 171.464 74.7588C173.304 74.7588 174.991 75.0842 176.452 75.7368C177.912 76.3876 179.148 77.2871 180.158 78.4333C181.169 79.5814 181.944 80.9232 182.483 82.4625C183.024 84.0018 183.293 85.6708 183.293 87.4697C183.293 89.2686 183.024 90.8572 182.483 92.3746C181.944 93.8919 181.169 95.2118 180.158 96.3361C179.148 97.4585 177.912 98.3415 176.452 98.9814C174.991 99.623 173.328 99.9411 171.464 99.9411C169.599 99.9411 167.965 99.6212 166.494 98.9814C165.021 98.3397 163.78 97.4585 162.769 96.3361C161.758 95.2118 160.984 93.8919 160.443 92.3746C159.903 90.8572 159.633 89.2229 159.633 87.4697C159.633 85.7165 159.903 84.0036 160.443 82.4625ZM165.281 90.4185C165.516 91.3727 165.893 92.2338 166.41 92.9979C166.927 93.7603 167.6 94.3745 168.433 94.8352C169.265 95.2959 170.276 95.5262 171.466 95.5262C172.655 95.5262 173.668 95.2959 174.5 94.8352C175.331 94.3745 176.006 93.7621 176.523 92.9979C177.038 92.2338 177.415 91.3727 177.653 90.4185C177.888 89.4624 178.005 88.4788 178.005 87.4697C178.005 86.4606 177.888 85.3911 177.653 84.4021C177.417 83.4131 177.04 82.532 176.523 81.7568C176.006 80.9817 175.331 80.362 174.5 79.9031C173.668 79.4424 172.657 79.2121 171.466 79.2121C170.274 79.2121 169.263 79.4424 168.433 79.9031C167.602 80.3638 166.927 80.9817 166.41 81.7568C165.893 82.532 165.518 83.4131 165.281 84.4021C165.045 85.3911 164.928 86.4149 164.928 87.4697C164.928 88.5245 165.045 89.4642 165.281 90.4185Z" fill="#42DEE1"></path><path d="M171.464 99.9998C169.621 99.9998 167.94 99.6744 166.47 99.0345C164.997 98.3929 163.736 97.4989 162.725 96.3746C161.715 95.2522 160.929 93.9122 160.386 92.3948C159.847 90.8775 159.574 89.2194 159.574 87.4699C159.574 85.7204 159.847 83.9836 160.386 82.4444C160.927 80.9051 161.713 79.5431 162.725 78.3969C163.736 77.2488 164.995 76.3384 166.468 75.6858C167.942 75.035 169.621 74.7041 171.464 74.7041C173.306 74.7041 175.015 75.035 176.477 75.6858C177.938 76.3366 179.191 77.2488 180.204 78.3969C181.216 79.545 182.002 80.9069 182.542 82.4444C183.081 83.98 183.353 85.671 183.353 87.4699C183.353 89.2687 183.081 90.8793 182.542 92.3948C182.001 93.9122 181.215 95.2503 180.204 96.3746C179.191 97.4989 177.938 98.3947 176.475 99.0345C175.017 99.6762 173.33 99.9998 171.464 99.9998ZM160.499 82.4828C159.964 84.0111 159.693 85.6874 159.693 87.4699C159.693 89.2523 159.964 90.8501 160.499 92.3546C161.035 93.8573 161.813 95.1827 162.813 96.296C163.813 97.4075 165.059 98.2923 166.516 98.9267C167.973 99.5611 169.638 99.8828 171.464 99.8828C173.29 99.8828 174.984 99.5611 176.43 98.9267C177.875 98.2923 179.115 97.4057 180.116 96.296C181.118 95.1827 181.896 93.8555 182.43 92.3546C182.966 90.8519 183.236 89.2084 183.236 87.4699C183.236 85.7313 182.966 84.0074 182.43 82.4828C181.896 80.9581 181.118 79.6089 180.116 78.4737C179.115 77.3384 177.874 76.4372 176.428 75.7918C174.982 75.1465 173.312 74.8193 171.464 74.8193C169.616 74.8193 167.975 75.1465 166.518 75.7918C165.059 76.4372 163.813 77.3403 162.813 78.4737C161.811 79.6108 161.033 80.9581 160.499 82.4828ZM171.464 95.5849C170.267 95.5849 169.237 95.3491 168.404 94.8865C167.569 94.4259 166.882 93.8006 166.361 93.0328C165.843 92.2687 165.461 91.3948 165.224 90.4351C164.988 89.4808 164.869 88.4845 164.869 87.4717C164.869 86.4589 164.988 85.3767 165.224 84.3895C165.461 83.3968 165.843 82.4992 166.361 81.7241C166.882 80.9435 167.569 80.3128 168.404 79.8521C169.239 79.3877 170.268 79.1537 171.464 79.1537C172.659 79.1537 173.688 79.3877 174.525 79.8521C175.36 80.3146 176.048 80.9453 176.569 81.7241C177.088 82.5029 177.47 83.3986 177.705 84.3895C177.941 85.3767 178.06 86.4132 178.06 87.4717C178.06 88.5302 177.941 89.4808 177.705 90.4351C177.47 91.3912 177.086 92.265 176.569 93.0328C176.048 93.8006 175.36 94.424 174.525 94.8865C173.69 95.3509 172.659 95.5849 171.464 95.5849ZM165.337 90.4058C165.571 91.3528 165.948 92.2138 166.457 92.967C166.969 93.7202 167.642 94.3326 168.459 94.786C169.276 95.2394 170.288 95.4697 171.464 95.4697C172.639 95.4697 173.651 95.2394 174.47 94.786C175.287 94.3326 175.962 93.7202 176.472 92.967C176.982 92.212 177.358 91.3491 177.592 90.4058C177.826 89.4607 177.945 88.4735 177.945 87.4699C177.945 86.4662 177.826 85.3931 177.592 84.4151C177.358 83.4389 176.982 82.5559 176.472 81.7881C175.962 81.0239 175.287 80.406 174.47 79.9508C173.65 79.4974 172.639 79.2671 171.464 79.2671C170.288 79.2671 169.278 79.4974 168.459 79.9508C167.642 80.4042 166.967 81.0221 166.457 81.7881C165.948 82.5522 165.571 83.4352 165.337 84.4151C165.103 85.3931 164.984 86.4223 164.984 87.4699C164.984 88.5174 165.103 89.4607 165.337 90.4058Z" fill="#42DEE1"></path><path d="M198.9 75.333L208.945 91.4808H209.013V75.333H213.966V99.402H208.677L198.666 83.289H198.599V99.402H193.644V75.333H198.9Z" fill="#42DEE1"></path><path d="M214.025 99.4604H208.646L208.625 99.433L198.655 83.384V99.4604H193.585V75.2744H198.931L198.951 75.3018L208.954 91.3856V75.2762H214.025V99.4623V99.4604ZM208.708 99.3434H213.908V75.3896H209.07V91.5374H208.912L208.892 91.5099L198.867 75.3896H193.7V99.3434H198.538V83.2304H198.695L198.715 83.2578L208.708 99.3434Z" fill="#42DEE1"></path><path d="M240.794 81.7548C240.479 81.2484 240.087 80.806 239.615 80.4221C239.143 80.04 238.61 79.742 238.014 79.5299C237.418 79.316 236.795 79.21 236.144 79.21C234.952 79.21 233.942 79.4404 233.112 79.901C232.278 80.3617 231.606 80.9796 231.089 81.7548C230.569 82.5299 230.195 83.411 229.959 84.4C229.721 85.3891 229.606 86.4128 229.606 87.4676C229.606 88.5225 229.723 89.4621 229.959 90.4164C230.195 91.3707 230.569 92.2317 231.089 92.9959C231.604 93.7582 232.278 94.3724 233.112 94.8331C233.943 95.2938 234.952 95.5242 236.144 95.5242C237.762 95.5242 239.026 95.0306 239.935 94.0397C240.845 93.0507 241.402 91.7473 241.604 90.1294H246.727C246.591 91.6357 246.244 92.9959 245.683 94.2079C245.122 95.4218 244.38 96.4565 243.457 97.3102C242.536 98.164 241.459 98.8166 240.224 99.2645C238.986 99.7142 237.626 99.9372 236.144 99.9372C234.3 99.9372 232.644 99.6173 231.174 98.9775C229.701 98.3358 228.458 97.4547 227.45 96.3322C226.439 95.2079 225.664 93.888 225.125 92.3706C224.584 90.8533 224.315 89.219 224.315 87.4658C224.315 85.7126 224.584 83.9997 225.125 82.4586C225.666 80.9193 226.441 79.5775 227.45 78.4294C228.46 77.2832 229.701 76.3837 231.174 75.7329C232.644 75.0821 234.302 74.7549 236.144 74.7549C237.469 74.7549 238.721 74.9468 239.9 75.3271C241.079 75.7092 242.135 76.2667 243.068 76.9962C244 77.7274 244.771 78.6305 245.378 79.7091C245.983 80.7877 246.367 82.0235 246.524 83.4165H241.401C241.309 82.8096 241.108 82.2538 240.792 81.7493L240.794 81.7548Z" fill="#42DEE1"></path><path d="M236.144 99.9998C234.3 99.9998 232.62 99.6744 231.149 99.0345C229.674 98.3929 228.414 97.4989 227.404 96.3746C226.393 95.2503 225.607 93.9103 225.066 92.3948C224.529 90.8811 224.254 89.223 224.254 87.4699C224.254 85.7167 224.529 83.98 225.066 82.4444C225.607 80.9051 226.393 79.545 227.404 78.3969C228.414 77.2507 229.674 76.3384 231.149 75.6858C232.618 75.035 234.3 74.7041 236.144 74.7041C237.467 74.7041 238.737 74.8979 239.918 75.28C241.101 75.6639 242.174 76.2288 243.106 76.9582C244.042 77.6912 244.824 78.609 245.431 79.6894C246.039 80.7716 246.427 82.0257 246.584 83.4206L246.591 83.4846H241.351L241.344 83.4352C241.254 82.8356 241.051 82.2817 240.746 81.7899H240.744C240.437 81.2908 240.044 80.8466 239.58 80.4718C239.112 80.0934 238.58 79.7972 237.995 79.587C237.409 79.3768 236.787 79.2707 236.146 79.2707C234.97 79.2707 233.958 79.5011 233.143 79.9545C232.324 80.4078 231.648 81.0257 231.14 81.7917C230.628 82.5559 230.253 83.4389 230.017 84.4187C229.785 85.3931 229.666 86.4205 229.666 87.4735C229.666 88.5265 229.785 89.468 230.017 90.4095C230.253 91.3564 230.628 92.2175 231.14 92.9707C231.648 93.7239 232.324 94.3363 233.143 94.7897C233.96 95.243 234.969 95.4734 236.146 95.4734C237.739 95.4734 239.001 94.9798 239.893 94.0072C240.792 93.0328 241.347 91.7275 241.547 90.1298L241.554 90.0786H246.79L246.785 90.1407C246.65 91.6508 246.295 93.031 245.736 94.2394C245.171 95.4569 244.418 96.5063 243.495 97.36C242.574 98.2156 241.479 98.8773 240.242 99.327C239.004 99.7768 237.626 100.003 236.144 100.003V99.9998ZM236.144 74.8174C234.318 74.8174 232.653 75.1447 231.198 75.79C229.738 76.4353 228.493 77.3384 227.491 78.4719C226.492 79.6089 225.713 80.9581 225.177 82.4809C224.642 84.0056 224.371 85.682 224.371 87.468C224.371 89.2541 224.642 90.8519 225.177 92.3528C225.713 93.8555 226.49 95.1809 227.491 96.2942C228.489 97.4057 229.738 98.2887 231.198 98.9249C232.651 99.5592 234.318 99.881 236.144 99.881C237.612 99.881 238.979 99.6561 240.203 99.2119C241.424 98.7676 242.506 98.1132 243.418 97.2686C244.328 96.424 245.072 95.3874 245.63 94.1845C246.178 93.0054 246.524 91.6617 246.664 90.1883H241.655C241.448 91.7879 240.885 93.0968 239.978 94.0803C239.063 95.0767 237.772 95.5831 236.144 95.5831C234.947 95.5831 233.918 95.3472 233.082 94.8847C232.247 94.424 231.562 93.7988 231.041 93.031C230.522 92.2668 230.14 91.3912 229.904 90.4332C229.666 89.4844 229.548 88.4863 229.548 87.4699C229.548 86.4534 229.666 85.3712 229.904 84.3876C230.14 83.395 230.522 82.4974 231.041 81.7223C231.562 80.9416 232.247 80.3109 233.082 79.8503C233.918 79.3859 234.947 79.1519 236.144 79.1519C236.798 79.1519 237.434 79.2598 238.034 79.4755C238.631 79.6894 239.174 79.991 239.651 80.3768C240.126 80.7625 240.529 81.2159 240.845 81.7241C241.15 82.2177 241.357 82.7679 241.453 83.3657H246.46C246.301 82.0147 245.919 80.7954 245.328 79.7442C244.727 78.6784 243.956 77.7717 243.033 77.0477C242.111 76.3256 241.051 75.7681 239.883 75.3878C238.714 75.0094 237.454 74.8174 236.144 74.8174Z" fill="#42DEE1"></path><path d="M275.071 75.333V79.7827H262.365V84.9398H274.026V89.0531H262.365V94.9524H275.34V99.402H257.072V75.333H275.071Z" fill="#42DEE1"></path><path d="M275.398 99.4604H257.013V75.2744H275.13V79.8411H262.423V84.8812H274.084V89.1115H262.423V94.8938H275.398V99.4586V99.4604ZM257.13 99.3434H275.281V95.0108H262.306V88.9945H273.967V84.9964H262.306V79.7241H275.013V75.3896H257.13V99.3434Z" fill="#42DEE1"></path><path d="M32.669 21.6465H0V28.2222H32.669V21.6465Z" fill="#42DEE1"></path><path d="M32.669 0.47168H0V7.04743H32.669V0.47168Z" fill="#42DEE1"></path><path d="M32.669 42.7578H0V49.4012H32.669V42.7578Z" fill="#42DEE1"></path><path d="M82.4546 29.994C82.4546 38.1163 77.8962 43.363 70.8412 43.363C63.7861 43.363 58.8238 38.1163 58.8238 29.994V0.47168H52.2476V29.7911C52.2476 42.4069 59.1985 49.9388 70.8412 49.9388C82.4839 49.9388 89.0308 42.332 89.0308 29.59V0.47168H82.4546V29.994Z" fill="#42DEE1"></path><path d="M131.99 6.57537C137.912 6.57537 143.18 9.38519 146.444 14.2864L146.859 14.9098L152.708 12.0762L152.207 11.2663C147.871 4.25182 140.316 0.0654297 131.99 0.0654297C118.463 0.0654297 107.868 11.0177 107.868 25.0028C107.868 38.9879 118.463 49.9384 131.99 49.9384C140.27 49.9384 147.826 45.7538 152.203 38.7448L152.704 37.9422L146.859 35.0191L146.44 35.6571C143.194 40.5967 137.927 43.4303 131.99 43.4303C122.062 43.4303 114.577 35.5072 114.577 25.0028C114.577 14.4984 122.064 6.57537 131.99 6.57537Z" fill="#42DEE1"></path><path d="M176.737 0.47168H170.161V49.3995H200.2V42.8256H176.737V0.47168Z" fill="#42DEE1"></path><path d="M224.266 0.47168H217.691V49.3995H224.266V0.47168Z" fill="#42DEE1"></path><path d="M259.475 0.47168H244.121V49.3995H259.475C273.767 49.3995 284.139 39.1401 284.139 25.0032C284.139 10.8664 273.765 0.47168 259.475 0.47168ZM250.695 7.04743H259.141C269.789 7.04743 277.225 14.4312 277.225 25.0032C277.225 35.5752 269.928 42.8256 259.073 42.8256H250.695V7.04743Z" fill="#42DEE1"></path><path d="M372.682 21.5261C363.686 19.9594 360.65 18.113 360.65 14.2136C360.65 7.56659 367.59 6.57392 371.724 6.57392C374.489 6.57392 381.071 7.17903 382.418 12.795L382.639 13.7182L388.974 11.5153L388.731 10.7238C386.766 4.30888 379.934 0 371.724 0C365.753 0 360.94 1.67456 357.804 4.84086C355.364 7.30517 354.042 10.636 354.075 14.2209C354.148 24.0105 363.145 26.4712 371.569 28.0105C380.954 29.7234 384.08 31.0305 384.08 35.3906C384.08 41.6976 376.527 43.3648 372.534 43.3648C365.797 43.3648 360.926 40.9517 359.167 36.7452L358.855 35.9993L352.611 38.1712L352.915 38.992C354.858 44.2844 361.07 49.9406 372.671 49.9406C381.367 49.9406 390.723 45.3867 390.723 35.3906C390.723 25.3944 381.406 22.9484 372.684 21.5261H372.682Z" fill="#42DEE1"></path><path d="M335.305 21.6465H302.636V28.2222H335.305V21.6465Z" fill="#42DEE1"></path><path d="M335.305 0.47168H302.636V7.04743H335.305V0.47168Z" fill="#42DEE1"></path><path d="M335.305 42.7578H302.636V49.4012H335.305V42.7578Z" fill="#42DEE1"></path></g><defs><clipPath id="clip0_1109_36"><rect width="390.722" height="100" fill="white"></rect></clipPath></defs></svg>