<svg xmlns="http://www.w3.org/2000/svg" width="646" height="182" viewBox="0 0 646 182" fill="none"><g clip-path="url(#clip0_86_114)"><path d="M368.13 16.3799C350.31 16.3799 344.23 25.6099 333.8 38.9599C323.37 25.6099 317.28 16.3799 299.47 16.3799C280.35 16.3799 267.74 30.4599 267.74 51.5899C267.74 58.6899 269.39 66.2499 272.95 73.8099V98.2599C272.95 100.23 274.55 101.82 276.51 101.82C278.47 101.82 280.07 100.23 280.07 98.2599V85.4499C281.36 87.1299 282.75 88.7999 284.24 90.4599L298.8 106.64V136.34C298.8 138.31 300.39 139.9 302.36 139.9C304.33 139.9 305.92 138.31 305.92 136.34V114.56L333.8 145.58L346.3 131.69V158.76C346.3 160.72 347.91 162.32 349.87 162.32C351.83 162.32 353.44 160.73 353.44 158.76V123.77L371.88 103.22V128.86C371.88 130.82 373.47 132.42 375.44 132.42C377.41 132.42 379 130.83 379 128.86V95.2999L383.34 90.4699C394.86 77.8399 399.85 63.9899 399.85 51.6099C399.85 30.4799 387.25 16.3999 368.12 16.3999" fill="#E4032C"></path><path d="M290.81 115.52C290.81 112.42 288.29 109.9 285.19 109.9C282.09 109.9 279.58 112.41 279.58 115.52C279.58 118.63 282.09 121.14 285.19 121.14C288.29 121.14 290.81 118.63 290.81 115.52Z" fill="#E4032C"></path><path d="M390.12 98.3101C388.15 98.3101 386.55 99.9201 386.55 101.88C386.55 103.84 388.15 105.45 390.12 105.45C392.09 105.45 393.7 103.85 393.7 101.88C393.7 99.9101 392.09 98.3101 390.12 98.3101Z" fill="#E4032C"></path><path d="M355.34 176.4C355.34 173.28 352.82 170.77 349.72 170.77C346.62 170.77 344.11 173.28 344.11 176.4C344.11 179.52 346.62 182 349.72 182C352.82 182 355.34 179.49 355.34 176.4Z" fill="#E4032C"></path><path d="M317.63 147.8C317.63 145.83 316.03 144.22 314.06 144.22C312.09 144.22 310.48 145.83 310.48 147.8C310.48 149.77 312.08 151.37 314.06 151.37C316.04 151.37 317.63 149.77 317.63 147.8Z" fill="#E4032C"></path><path d="M304.62 155.88C304.62 154.64 303.61 153.62 302.37 153.62C301.13 153.62 300.11 154.63 300.11 155.88C300.11 157.13 301.12 158.14 302.37 158.14C303.62 158.14 304.62 157.13 304.62 155.88Z" fill="#E4032C"></path><path d="M414.63 60.6899C414.63 58.7199 413.02 57.1099 411.06 57.1099C409.1 57.1099 407.48 58.7199 407.48 60.6899C407.48 62.6599 409.08 64.2699 411.06 64.2699C413.04 64.2699 414.63 62.6599 414.63 60.6899Z" fill="#E4032C"></path><path d="M267.74 16.27C266.5 16.27 265.49 17.28 265.49 18.52C265.49 19.76 266.5 20.78 267.74 20.78C268.98 20.78 270 19.77 270 18.52C270 17.27 268.99 16.27 267.74 16.27Z" fill="#E4032C"></path><path d="M365.05 4.45996C363.81 4.45996 362.8 5.46996 362.8 6.71996C362.8 7.96996 363.81 8.97996 365.05 8.97996C366.29 8.97996 367.31 7.96996 367.31 6.71996C367.31 5.46996 366.3 4.45996 365.05 4.45996Z" fill="#E4032C"></path><path d="M389.5 5.62C389.5 2.5 386.99 0 383.88 0C380.77 0 378.26 2.5 378.26 5.62C378.26 8.74 380.77 11.23 383.88 11.23C386.99 11.23 389.5 8.71 389.5 5.62Z" fill="#E4032C"></path><path d="M254.19 63.1098C254.19 48.0898 245.89 38.7598 232.22 37.5298V49.7998C237.25 50.8798 239.18 54.7098 239.36 57.9698H219.28C219.53 54.8398 221.86 50.9998 226.42 49.8498V37.5298C214.46 38.8198 204.04 48.7798 204.04 63.8198C204.04 80.6698 216.36 90.5598 230.18 90.5598C242.89 90.5598 250.87 83.2998 253.28 74.6198L240.47 70.9898C239.05 74.9298 235.92 77.5498 230.38 77.5498C224.42 77.5498 219.28 73.5098 218.97 67.8598H253.88C253.98 67.5598 254.18 65.2398 254.18 63.1198" fill="black"></path><path d="M178.72 15.6001H194.21V89.3601H178.72V15.6001Z" fill="black"></path><path d="M254.19 63.1798C254.19 48.1598 245.89 38.8298 232.22 37.6098V49.8698C237.25 50.9498 239.18 54.7798 239.36 58.0398H219.28C219.53 54.8998 221.86 51.0698 226.42 49.9098V37.5898C214.46 38.8798 204.04 48.8398 204.04 63.8798C204.04 80.7298 216.36 90.6298 230.18 90.6298C242.89 90.6298 250.87 83.3598 253.28 74.6898L240.47 71.0498C239.05 74.9898 235.92 77.6098 230.38 77.6098C224.42 77.6098 219.28 73.5698 218.97 67.9198H253.88C253.98 67.6198 254.18 65.2998 254.18 63.1798" fill="black"></path><path d="M191.85 130.09V143.46H200.7V164.87C200.7 174.82 207.03 180.95 217.39 180.95C222.21 180.95 224.72 179.84 225.33 179.55V166.89C224.43 167.09 222.91 167.39 221.31 167.39C217.99 167.39 215.78 166.27 215.78 162.16V143.47H225.53V130.1H215.78V115.53H202.12V121.97C202.12 126.6 199.61 130.1 194.37 130.1H191.86L191.85 130.09Z" fill="black"></path><path d="M253.78 142.94V128.65C240.24 129.98 230.13 140.58 230.13 155.05C230.13 170.52 241.68 181.48 256.67 181.48C271.66 181.48 283.19 170.52 283.19 155.05C283.19 140.6 273.01 129.99 259.54 128.65V142.95C264.11 144.11 267.91 148.12 267.91 155.04C267.91 163.48 262.38 167.4 256.66 167.4C250.94 167.4 245.4 163.48 245.4 155.04C245.4 148.02 249.15 144.06 253.77 142.93" fill="black"></path><path d="M165.82 128.6C151.14 128.6 139.49 139.55 139.49 155.13C139.49 169.25 149.46 179.6 162.51 181.31V166.9C157.99 165.46 154.66 161.4 154.66 155.13C154.66 147.08 159.78 142.66 166.12 142.66C172.05 142.66 175.06 146.28 176.17 150.1L189.84 145.98C187.62 137.03 179.58 128.6 165.82 128.6Z" fill="black"></path><path d="M168.23 167.33V181.49C180.47 180.7 188.04 172.48 190.14 164.16L176.67 160.04C175.69 163.34 172.96 166.62 168.23 167.33Z" fill="black"></path><path d="M41.7501 74.0102C33.0001 72.1502 25.7701 64.8502 25.7701 53.4102C25.7701 38.4602 36.5201 31.6202 46.0501 31.6202C58.6001 31.6202 63.1301 39.9602 64.2301 44.8802L79.1901 40.1602C76.8901 29.9202 67.4401 16.1602 46.0501 16.1602C26.1701 16.1602 9.31006 31.2202 9.31006 53.4102C9.31006 73.9502 23.4201 88.1202 41.7501 90.1102V74.0102Z" fill="black"></path><path d="M64.9299 61.1401C63.5799 66.0701 58.9699 73.8401 47.6499 74.4401V90.3401C68.7299 89.7201 77.8299 75.0901 80.0999 65.4601L64.9299 61.1401Z" fill="black"></path><path d="M157.33 14.1699C162.42 14.1699 166.49 18.2499 166.49 23.2399C166.49 28.2299 162.42 32.3099 157.33 32.3099C152.24 32.3099 148.37 28.2399 148.37 23.2399C148.37 18.2399 152.44 14.1699 157.33 14.1699ZM149.69 38.7199H165.18V89.3599H149.69V38.7199Z" fill="black"></path><path d="M124.02 105.88C119.2 105.88 115.17 109.9 115.17 114.83C115.17 119.76 119.19 123.77 124.02 123.77C128.85 123.77 133.06 119.75 133.06 114.83C133.06 109.91 129.04 105.88 124.02 105.88Z" fill="black"></path><path d="M116.48 180.04H131.75V130.09H116.48V180.04Z" fill="black"></path><path d="M17.29 181.5C20.5 181.5 23.28 180.84 25.6 179.69V169.62C24.09 170.2 22.49 170.44 21.01 170.44C16.79 170.44 15.08 167.92 15.08 165.32C15.08 161.8 17.49 160.29 20.71 159.79L31.36 158.09V174.46C31.36 177.87 31.76 179.69 31.86 180.09H45.63C45.53 179.58 45.02 176.27 45.02 172.35V147.93C45.02 137.67 39.1 128.63 22.92 128.63C8.24 128.63 1.62 138.08 1.01 145.21L14.28 147.93C14.58 144.21 17.49 140.59 22.82 140.59C27.64 140.59 30.15 143.1 30.15 146.02C30.15 147.72 29.25 149.03 26.54 149.43L14.78 151.24C6.54 152.45 0 157.47 0 166.32C0 174.25 6.34 181.49 17.29 181.49" fill="black"></path><path d="M89.65 134.01C88.45 132.1 84.72 128.89 76.19 128.89C62.02 128.89 51.96 140.04 51.96 154.92C51.96 169.8 62.61 181.14 76.69 181.14C79.5 181.14 82.08 180.59 84.29 179.66V166.1C82.64 167 80.75 167.48 78.8 167.48C72.87 167.48 67.54 163.25 67.54 155.01C67.54 146.77 72.87 142.65 78.8 142.65C84.73 142.65 89.89 146.56 90.04 154.66H90.06V175.22C90.06 177.22 90.36 179.44 90.46 180.04H105.13C105.03 178.93 104.73 175.61 104.73 171.1V107.27H89.66V134.01H89.65Z" fill="black"></path><path d="M104.49 15.6001H89.0601V89.3601H104.49V15.6001Z" fill="black"></path><path d="M117.49 37.3999C115.26 37.3999 112.84 37.7499 110.57 38.4899V51.7499C111.3 51.5699 112.07 51.4599 112.91 51.4599C118.52 51.4599 121.16 55.2299 121.16 60.2199V89.3699H136.64V57.5799C136.64 46.4799 130.73 37.4099 117.49 37.4099" fill="black"></path><path d="M281.61 70.3199H285.25V63.3799H292.82V70.3199H296.46V52.6399H292.82V60.1299H285.25V52.6399H281.61V70.3199ZM308.18 70.5599C313.28 70.5599 317.33 66.7099 317.33 61.4899C317.33 56.2699 313.27 52.4199 308.18 52.4199C303.09 52.4199 299.03 56.2699 299.03 61.4899C299.03 66.7099 303.09 70.5599 308.18 70.5599ZM308.18 67.3099C304.96 67.3099 302.77 64.7899 302.77 61.4899C302.77 58.1899 304.95 55.6699 308.18 55.6699C311.41 55.6699 313.59 58.1899 313.59 61.4899C313.59 64.7899 311.41 67.3099 308.18 67.3099ZM322.89 70.3199H326.53V55.8399H331.57V52.6399H317.84V55.8399H322.88V70.3199H322.89ZM333.74 70.3199H345.8V67.1199H337.38V63.0099H344.48V59.8899H337.38V55.8299H345.44V52.6299H333.74V70.3099V70.3199ZM348.66 70.3199H360.31V67.1199H352.3V52.6399H348.66V70.3199ZM362.73 70.3199H374.79V67.1199H366.37V63.0099H373.47V59.8899H366.37V55.8299H374.43V52.6299H362.73V70.3099V70.3199ZM382.87 70.5599C386.33 70.5599 388.9 68.7699 388.9 65.4899C388.9 62.4499 387.16 61.0999 384.06 59.7699L383.15 59.3799C381.59 58.6999 380.91 58.2599 380.91 57.1699C380.91 56.2899 381.59 55.6099 382.65 55.6099C383.71 55.6099 384.37 56.0499 384.99 57.1699L387.82 55.3499C386.62 53.2399 384.96 52.4399 382.65 52.4399C379.4 52.4399 377.32 54.5199 377.32 57.2499C377.32 60.2099 379.06 61.6199 381.69 62.7399L382.6 63.1299C384.26 63.8599 385.25 64.2999 385.25 65.5499C385.25 66.5899 384.29 67.3399 382.78 67.3399C380.99 67.3399 379.97 66.3999 379.19 65.1299L376.23 66.8499C377.3 68.9599 379.48 70.5699 382.86 70.5699L382.87 70.5599Z" fill="white"></path><path d="M506.88 126.91C528.8 126.91 544.64 113.31 544.64 90.9098C544.64 68.5098 530.24 56.5098 509.12 56.5098C500 56.5098 492.8 58.9098 487.2 62.7498V22.5898H539.36V16.8298H481.28V72.3498L481.92 72.8298C488.48 66.5898 497.28 62.2698 509.12 62.2698C527.04 62.2698 537.92 73.1498 537.92 90.9098C537.92 108.67 525.6 120.99 506.88 120.99C493.12 120.99 482.24 114.27 476.48 104.67L471.04 108.03C477.92 119.87 491.36 126.91 506.88 126.91ZM603.52 126.91C625.6 126.91 645.28 108.99 645.28 71.2298C645.28 33.4698 625.6 15.5498 603.52 15.5498C581.44 15.5498 561.76 33.4698 561.76 71.2298C561.76 108.99 581.44 126.91 603.52 126.91ZM603.52 120.99C584.8 120.99 568.48 106.43 568.48 71.2298C568.48 36.0298 584.8 21.4698 603.52 21.4698C622.24 21.4698 638.56 36.0298 638.56 71.2298C638.56 106.43 622.24 120.99 603.52 120.99Z" fill="black"></path><path d="M476.93 181.43H491.59C500.93 181.43 504.77 176.31 504.77 169.33C504.77 163.18 501.83 159.34 496.26 158.19C500.8 156.59 502.4 153.26 502.4 148.72C502.4 142.7 498.62 137.9 490.3 137.9H476.92V181.42L476.93 181.43ZM479.56 179.12V159.54H491.08C498.7 159.54 502.15 163.12 502.15 169.33C502.15 175.09 499.4 179.12 491.27 179.12H479.56ZM479.56 157.23V140.21H490.06C497.16 140.21 499.79 143.92 499.79 148.72C499.79 153.52 497.49 157.23 491.21 157.23H479.56ZM515.33 181.43H541.63V179.13H517.95V160.7H538.37V158.4H517.95V140.22H540.73V137.92H515.32V181.44L515.33 181.43ZM562.37 181.94C569.86 181.94 575.23 177.59 575.23 170.8C575.23 164.78 571.84 161.07 564.8 157.87L560.77 156.01C555.39 153.51 553.22 151.4 553.22 147.05C553.22 142.7 556.23 139.69 561.35 139.69C566.15 139.69 568.65 142.12 570.44 145L572.49 143.66C570.44 140.39 567.18 137.39 561.35 137.39C555.52 137.39 550.66 141.1 550.66 147.12C550.66 152.62 553.67 155.5 559.75 158.32L563.78 160.17C569.86 162.99 572.68 165.74 572.68 170.79C572.68 176.29 568.01 179.62 562.31 179.62C555.33 179.62 552.07 175.97 550.02 172.13L547.78 173.22C549.89 177.57 554.12 181.92 562.37 181.92V181.94ZM594.12 181.43H596.74V140.21H610.56V137.91H580.29V140.21H594.11V181.43H594.12Z" fill="black"></path><path d="M437.49 171.34C437.49 170.23 438.39 169.34 439.49 169.34C440.6 169.34 441.49 170.23 441.49 171.34C441.49 172.44 440.6 173.34 439.49 173.34C438.39 173.34 437.49 172.44 437.49 171.34ZM437.49 163.17C437.49 162.06 438.39 161.17 439.49 161.17C440.6 161.17 441.49 162.06 441.49 163.17C441.49 164.27 440.6 165.17 439.49 165.17C438.39 165.17 437.49 164.27 437.49 163.17ZM437.49 155C437.49 153.9 438.39 153 439.49 153C440.6 153 441.49 153.9 441.49 155C441.49 156.11 440.6 157 439.49 157C438.39 157 437.49 156.11 437.49 155ZM437.49 146.84C437.49 145.73 438.39 144.84 439.49 144.84C440.6 144.84 441.49 145.73 441.49 146.84C441.49 147.94 440.6 148.84 439.49 148.84C438.39 148.84 437.49 147.94 437.49 146.84ZM437.49 138.67C437.49 137.56 438.39 136.67 439.49 136.67C440.6 136.67 441.49 137.56 441.49 138.67C441.49 139.77 440.6 140.67 439.49 140.67C438.39 140.67 437.49 139.77 437.49 138.67ZM437.49 130.5C437.49 129.4 438.39 128.5 439.49 128.5C440.6 128.5 441.49 129.4 441.49 130.5C441.49 131.61 440.6 132.5 439.49 132.5C438.39 132.5 437.49 131.61 437.49 130.5ZM437.49 122.34C437.49 121.23 438.39 120.34 439.49 120.34C440.6 120.34 441.49 121.23 441.49 122.34C441.49 123.44 440.6 124.34 439.49 124.34C438.39 124.34 437.49 123.44 437.49 122.34ZM437.49 114.17C437.49 113.06 438.39 112.17 439.49 112.17C440.6 112.17 441.49 113.06 441.49 114.17C441.49 115.28 440.6 116.17 439.49 116.17C438.39 116.17 437.49 115.28 437.49 114.17ZM437.49 106C437.49 104.9 438.39 104 439.49 104C440.6 104 441.49 104.9 441.49 106C441.49 107.11 440.6 108.01 439.49 108.01C438.39 108.01 437.49 107.11 437.49 106ZM437.49 97.8398C437.49 96.7298 438.39 95.8398 439.49 95.8398C440.6 95.8398 441.49 96.7298 441.49 97.8398C441.49 98.9398 440.6 99.8398 439.49 99.8398C438.39 99.8398 437.49 98.9398 437.49 97.8398ZM437.49 89.6698C437.49 88.5698 438.39 87.6698 439.49 87.6698C440.6 87.6698 441.49 88.5698 441.49 89.6698C441.49 90.7798 440.6 91.6698 439.49 91.6698C438.39 91.6698 437.49 90.7798 437.49 89.6698ZM437.49 81.4998C437.49 80.3998 438.39 79.5098 439.49 79.5098C440.6 79.5098 441.49 80.3998 441.49 81.4998C441.49 82.6098 440.6 83.5098 439.49 83.5098C438.39 83.5098 437.49 82.6098 437.49 81.4998ZM437.49 73.3398C437.49 72.2298 438.39 71.3398 439.49 71.3398C440.6 71.3398 441.49 72.2298 441.49 73.3398C441.49 74.4398 440.6 75.3398 439.49 75.3398C438.39 75.3398 437.49 74.4398 437.49 73.3398ZM437.49 65.1698C437.49 64.0698 438.39 63.1698 439.49 63.1698C440.6 63.1698 441.49 64.0698 441.49 65.1698C441.49 66.2798 440.6 67.1698 439.49 67.1698C438.39 67.1698 437.49 66.2798 437.49 65.1698ZM437.49 57.0098C437.49 55.8998 438.39 55.0098 439.49 55.0098C440.6 55.0098 441.49 55.8998 441.49 57.0098C441.49 58.1098 440.6 59.0098 439.49 59.0098C438.39 59.0098 437.49 58.1098 437.49 57.0098ZM437.49 48.8398C437.49 47.7298 438.39 46.8398 439.49 46.8398C440.6 46.8398 441.49 47.7298 441.49 48.8398C441.49 49.9398 440.6 50.8398 439.49 50.8398C438.39 50.8398 437.49 49.9398 437.49 48.8398ZM437.49 40.6698C437.49 39.5698 438.39 38.6698 439.49 38.6698C440.6 38.6698 441.49 39.5698 441.49 40.6698C441.49 41.7798 440.6 42.6698 439.49 42.6698C438.39 42.6698 437.49 41.7798 437.49 40.6698ZM437.49 32.5098C437.49 31.3998 438.39 30.5098 439.49 30.5098C440.6 30.5098 441.49 31.3998 441.49 32.5098C441.49 33.6098 440.6 34.5098 439.49 34.5098C438.39 34.5098 437.49 33.6098 437.49 32.5098ZM437.49 24.3398C437.49 23.2298 438.39 22.3398 439.49 22.3398C440.6 22.3398 441.49 23.2298 441.49 24.3398C441.49 25.4398 440.6 26.3398 439.49 26.3398C438.39 26.3398 437.49 25.4398 437.49 24.3398Z" fill="black"></path></g><defs><clipPath id="clip0_86_114"><rect width="645.28" height="182" fill="white"></rect></clipPath></defs></svg>